# xmcd
#
# Track frame offsets:
#	150
#	11583
#	21695
#	32740
#	43571
#	54194
#	64084
#	76388
#	87587
#	97711
#	109634
#	121679
#
# Disc length: 1765 seconds
#
# Revision: 1
# Processed by: cddbd v1.5.2PL0 Copyright (c) Steve Scherf et al.
# Submitted via: audiograbber 1.83.01
#
DISCID=8b06e30c
DTITLE=Dolly Parton - Hello, I'm Dolly
DYEAR=1967
DGENRE=Country
TTITLE0=Dumb Blonde
TTITLE1=Your Ole Handy Man
TTITLE2=I Don't Want To Throw Rice
TTITLE3=Put It Off Until Tomorrow
TTITLE4=I Wasted My Tears
TTITLE5=Something Fishy
TTITLE6=Fuel To The Flame
TTITLE7=The Giving And The Taking
TTITLE8=I'm In No Condition
TTITLE9=The Company You Keep
TTITLE10=I Lived My Life
TTITLE11=The Little Things
EXTD=
EXTT0=
EXTT1=
EXTT2=
EXTT3=
EXTT4=
EXTT5=
EXTT6=
EXTT7=
EXTT8=
EXTT9=
EXTT10=
EXTT11=
PLAYORDER=
